<?xml version="1.0" standalone="no"?>
<!DOCTYPE svg PUBLIC "-//W3C//DTD SVG 20010904//EN"
 "http://www.w3.org/TR/2001/REC-SVG-20010904/DTD/svg10.dtd">
<svg version="1.0" xmlns="http://www.w3.org/2000/svg"
 width="468pt" height="518pt" viewBox="0 0 468 518"
 preserveAspectRatio="xMidYMid meet">
<metadata>
Created by potrace 1.7, written by Peter Selinger 2001-2005
</metadata>
<g transform="translate(0,518) scale(0.105169,-0.105169)"
fill="#000000" stroke="none">
<path d="M3486 4853 c-4 -4 -15 -8 -25 -10 -10 -1 -33 -16 -50 -32 -17 -16
-53 -39 -79 -51 -26 -11 -68 -32 -93 -45 -51 -27 -283 -105 -369 -124 -84 -19
-124 -32 -140 -47 -27 -23 -132 -73 -145 -68 -7 3 -27 -4 -46 -14 -19 -11 -65
-30 -104 -43 -38 -12 -73 -27 -76 -32 -8 -11 -77 -37 -100 -37 -9 0 -26 -9
-38 -19 -12 -10 -37 -22 -57 -25 -19 -4 -76 -27 -127 -52 -136 -67 -166 -84
-227 -123 -30 -20 -67 -43 -82 -50 -15 -8 -49 -35 -76 -62 -29 -28 -80 -63
-124 -83 -47 -23 -80 -45 -88 -61 -7 -14 -30 -37 -49 -52 -20 -15 -45 -38 -56
-52 -11 -14 -40 -45 -65 -69 -114 -110 -148 -142 -153 -142 -8 0 -287 -278
-287 -286 0 -3 -18 -21 -39 -41 -22 -19 -42 -46 -46 -60 -3 -14 -28 -47 -55
-74 -28 -28 -50 -54 -50 -59 0 -5 -14 -25 -31 -44 -17 -20 -32 -42 -33 -51 -1
-8 -11 -25 -23 -38 -38 -44 -90 -141 -149 -277 -16 -36 -33 -72 -40 -80 -6 -8
-15 -26 -19 -39 -4 -14 -23 -48 -41 -77 -19 -29 -34 -58 -34 -64 0 -10 -41
-89 -59 -115 -12 -17 -57 -137 -70 -185 -26 -100 -65 -360 -70 -470 -1 -8 -3
-42 -6 -75 -8 -101 -6 -197 4 -260 20 -115 28 -152 35 -164 3 -5 10 -52 16
-105 7 -71 18 -114 41 -164 67 -148 122 -248 162 -296 58 -71 134 -146 147
-146 5 0 10 -8 11 -17 1 -41 238 -213 291 -213 13 0 29 -5 35 -11 12 -12 121
-39 178 -43 22 -2 72 -9 110 -15 81 -13 217 -9 258 8 16 6 42 11 58 11 44 0
191 35 214 50 6 4 37 17 70 28 157 54 352 148 392 188 8 7 20 14 28 14 7 0 15
3 17 8 2 4 17 15 33 24 17 10 29 24 27 33 -3 13 3 15 31 10 24 -5 37 -2 47 9
7 9 28 24 46 32 19 9 34 22 34 29 0 7 21 28 46 46 25 19 68 54 94 79 27 25 63
56 80 70 18 14 41 35 53 48 11 12 26 22 32 22 7 0 25 12 41 27 16 15 30 26 32
25 7 -6 23 0 37 15 15 14 50 23 149 38 15 2 34 9 41 15 7 6 26 9 43 8 16 -1
36 3 44 9 7 6 31 14 53 17 22 4 72 18 110 31 70 24 98 30 168 39 20 3 49 12
66 20 16 9 36 16 44 16 8 0 31 11 51 25 20 14 43 25 50 25 7 0 25 14 41 30 16
17 36 30 45 30 9 0 22 11 28 25 8 17 20 25 36 25 14 0 31 6 38 13 22 19 48 35
123 72 71 35 88 44 138 78 15 10 32 15 37 12 6 -3 10 -2 10 3 0 5 16 18 36 28
20 11 51 27 70 37 19 9 34 24 34 32 0 7 9 21 21 29 12 8 19 20 17 27 -5 14 52
69 70 69 15 0 42 40 42 61 0 11 -6 16 -17 14 -10 -2 -21 -4 -24 -4 -4 -1 -28
-18 -55 -40 -78 -61 -145 -80 -201 -56 -10 5 -20 9 -23 9 -3 1 -15 8 -28 15
-13 7 -30 10 -37 7 -8 -3 -17 -1 -20 5 -4 5 -10 7 -14 5 -4 -3 -27 2 -52 11
-24 9 -69 18 -99 20 -97 6 -144 17 -177 42 -18 14 -33 32 -33 41 0 23 -30 48
-55 45 -33 -3 -159 -35 -175 -45 -11 -7 -12 -22 -4 -83 5 -42 6 -73 2 -71 -3
2 -13 -4 -20 -15 -8 -11 -27 -25 -43 -33 -17 -7 -36 -18 -43 -25 -6 -6 -23
-10 -36 -7 -14 2 -46 -4 -73 -14 -26 -10 -56 -17 -65 -15 -9 3 -25 -4 -36 -14
-10 -10 -27 -23 -38 -29 -17 -10 -18 -15 -7 -43 13 -35 13 -34 -39 -45 -36 -8
-86 -57 -93 -93 -13 -57 -27 -81 -51 -87 -13 -4 -24 -11 -24 -16 0 -6 -11 -10
-24 -10 -14 0 -27 -4 -30 -9 -7 -10 -107 -39 -160 -45 -22 -3 -51 -14 -66 -24
-14 -11 -35 -22 -48 -26 -44 -14 -10 -76 51 -91 15 -4 30 -11 33 -16 3 -5 16
-9 29 -9 22 0 23 -2 14 -23 -6 -12 -31 -36 -57 -52 -26 -17 -55 -38 -65 -48
-22 -22 -60 -37 -93 -37 -13 0 -32 -4 -42 -9 -9 -5 -30 -13 -46 -17 -20 -6
-30 -17 -33 -33 -4 -30 11 -41 56 -41 28 0 31 -2 22 -14 -7 -8 -36 -26 -66
-40 -40 -19 -55 -31 -55 -46 0 -24 -16 -26 -28 -4 -11 21 -33 10 -92 -45 -24
-22 -57 -45 -74 -52 -17 -7 -38 -18 -46 -25 -8 -7 -56 -30 -107 -52 -50 -22
-106 -51 -125 -64 -41 -30 -129 -64 -188 -73 -25 -4 -51 -12 -57 -17 -7 -6
-81 -11 -165 -12 l-153 -1 -116 48 c-64 26 -123 47 -131 47 -7 0 -22 6 -33 14
-11 7 -37 19 -58 26 -21 6 -81 34 -134 61 -53 27 -101 49 -107 49 -14 0 -71
29 -106 53 -13 9 -30 17 -38 17 -12 0 -80 65 -126 121 -26 31 -38 86 -20 93
18 7 10 83 -11 106 -15 17 -79 183 -96 250 -24 92 -38 187 -40 265 -1 47 -6
85 -11 85 -5 0 -6 5 -3 10 4 6 1 17 -5 25 -13 15 -5 135 9 135 4 0 13 -48 19
-107 22 -194 33 -258 53 -291 11 -19 19 -52 19 -76 0 -45 12 -93 34 -136 8
-14 21 -50 31 -80 10 -30 28 -70 40 -88 40 -59 165 -127 258 -139 32 -4 39 -2
43 14 3 11 15 20 31 21 28 2 103 41 103 54 0 4 11 8 24 8 13 0 35 9 48 20 66
56 117 95 153 119 22 14 65 51 95 81 31 30 81 79 113 108 31 30 57 57 57 62 0
4 33 41 73 81 72 74 108 114 160 178 28 36 36 88 16 108 -9 9 -3 33 23 95 20
46 39 104 42 130 8 52 -26 341 -50 423 -17 60 -40 162 -78 340 -18 87 -89 366
-116 460 -11 39 -23 82 -26 97 -12 52 -57 47 -51 -6 2 -17 1 -40 -3 -50 -6
-17 -7 -16 -21 5 -8 13 -23 51 -33 84 -25 83 -29 90 -60 93 -18 2 -26 -1 -26
-12 0 -9 -4 -16 -9 -16 -4 0 -27 -29 -51 -65 -23 -36 -88 -112 -143 -169 -56
-56 -123 -124 -148 -152 -25 -27 -62 -62 -82 -79 -21 -16 -37 -33 -37 -38 0
-4 -18 -33 -41 -63 -22 -30 -45 -69 -51 -86 -6 -17 -27 -47 -47 -67 -37 -38
-111 -163 -111 -187 0 -8 -6 -14 -12 -14 -22 -1 -137 -192 -138 -228 0 -13
-11 -33 -24 -45 -17 -16 -28 -42 -36 -86 -11 -60 -28 -117 -29 -96 -1 12 34
203 49 270 6 28 82 192 169 366 187 373 199 394 268 479 71 88 115 146 156
205 19 28 69 82 111 120 60 56 491 474 582 564 12 11 68 45 127 75 58 29 122
70 143 90 20 20 43 36 51 36 7 0 13 4 13 9 0 5 11 12 24 15 13 3 52 22 87 42
35 21 74 42 86 48 13 6 23 14 23 19 0 4 9 7 20 7 12 0 40 9 63 21 23 11 58 23
77 26 19 3 40 8 45 12 6 4 44 18 85 31 152 47 160 51 160 75 0 16 11 27 40 40
23 10 48 18 57 18 9 0 23 13 32 29 9 15 20 27 25 25 5 -2 34 9 65 24 38 19 61
25 75 19 12 -4 30 -4 42 0 18 7 23 3 34 -28 7 -21 26 -56 41 -80 16 -24 29
-47 29 -53 0 -19 20 -8 26 15 4 16 -3 37 -20 65 -14 22 -26 45 -26 50 0 16 43
37 130 66 111 36 150 53 150 64 0 5 21 13 48 16 106 15 152 40 152 84 0 18 11
35 35 54 19 15 35 34 35 42 0 8 4 15 10 15 13 0 32 38 21 44 -4 3 -11 2 -15
-1z m-2341 -1888 c15 -365 22 -415 81 -590 9 -27 23 -65 30 -83 8 -18 14 -41
14 -52 0 -10 4 -21 9 -24 5 -3 20 -31 35 -62 38 -79 113 -193 153 -229 l33
-31 -19 -94 c-32 -153 -43 -177 -110 -252 -13 -15 -21 -33 -18 -42 4 -9 -4
-28 -16 -43 -37 -47 -67 -92 -67 -101 0 -5 -11 -19 -25 -32 -14 -13 -25 -29
-25 -35 0 -11 -196 -215 -207 -215 -3 0 -38 -33 -77 -72 -124 -125 -238 -195
-271 -168 -9 7 -33 14 -55 16 -23 2 -62 18 -95 40 -31 19 -65 37 -76 39 -21 4
-39 -21 -31 -45 8 -25 -5 -7 -32 44 -14 27 -26 55 -26 62 0 12 -21 66 -41 106
-5 10 -9 26 -9 35 0 10 -7 41 -16 68 -31 97 -34 112 -50 226 -22 156 -26 332
-9 378 7 20 23 68 34 106 22 70 56 128 99 171 12 13 22 29 22 37 0 8 14 31 30
52 19 24 29 48 28 64 -2 31 65 146 99 168 13 9 23 20 23 25 0 19 35 84 73 137
37 50 90 110 207 232 25 26 56 61 70 78 14 17 46 53 71 79 25 26 55 61 65 77
41 68 77 107 85 93 4 -7 10 -80 14 -163z m112 -226 c19 -46 40 -109 47 -139
25 -102 87 -315 101 -346 17 -38 30 -104 21 -104 -4 0 -11 10 -17 23 -18 40
-36 68 -52 80 -37 28 -98 180 -119 297 -16 91 -37 239 -38 268 -1 36 28 -3 57
-79z m2167 -1051 c19 -37 20 -58 5 -58 -6 0 -9 7 -5 15 3 8 1 15 -4 15 -6 0
-10 -5 -10 -11 0 -5 -4 -7 -10 -4 -16 10 -11 75 6 75 1 0 10 -14 18 -32z m178
-18 c10 0 18 -7 18 -17 0 -9 -3 -14 -6 -10 -6 5 -15 0 -49 -30 -7 -7 -20 -13
-28 -13 -25 0 -28 -28 -4 -32 21 -3 27 -22 7 -24 -5 -1 -14 -2 -19 -3 -5 0 -8
-15 -7 -32 2 -29 2 -30 -13 -11 -22 26 -46 33 -76 22 -17 -7 -25 -6 -25 1 0 6
-6 9 -12 6 -22 -8 -64 -17 -49 -11 11 5 11 8 0 15 -10 6 -5 9 16 9 20 0 35 7
43 21 12 19 12 20 -10 14 l-23 -7 23 17 c12 9 19 21 16 27 -5 7 2 9 19 6 14
-3 32 -1 39 3 10 7 10 9 1 9 -7 0 -13 8 -12 18 0 10 3 12 6 5 3 -9 10 -10 23
-3 13 7 21 7 25 0 10 -17 25 -11 18 7 -4 10 -2 14 4 10 6 -4 16 0 23 9 9 10
16 12 24 4 5 -5 18 -10 28 -10z m61 -75 c-3 -9 -8 -14 -10 -11 -3 3 -2 9 2 15
9 16 15 13 8 -4z m-47 -4 c11 9 14 9 14 -1 0 -6 -9 -14 -19 -17 -22 -6 -36
-44 -19 -54 6 -4 22 0 35 8 14 10 23 11 23 4 0 -6 3 -10 8 -9 4 1 17 -3 30
-10 18 -10 22 -10 20 0 -2 8 7 12 25 11 15 -1 27 1 27 5 0 4 9 8 20 9 19 2 19
1 2 -16 -9 -10 -27 -22 -39 -25 -13 -4 -23 -13 -23 -20 0 -23 -30 -41 -48 -30
-12 7 -25 6 -42 -3 -35 -18 -48 -16 -60 7 -6 11 -15 18 -21 15 -5 -4 -6 -11
-3 -17 4 -7 2 -8 -5 -4 -6 4 -8 13 -4 19 3 7 -2 5 -13 -4 -24 -20 -114 -49
-114 -37 0 5 -5 6 -10 3 -10 -6 -5 53 5 63 11 11 42 6 58 -9 19 -18 54 -14 57
6 3 16 22 35 30 30 7 -5 23 32 21 48 -2 12 24 36 27 26 2 -6 10 -5 18 2z
m-296 -91 c0 -5 -2 -10 -4 -10 -2 0 -12 -3 -20 -6 -12 -5 -15 -2 -10 10 7 17
34 22 34 6z m-70 -11 c0 -5 5 -7 12 -3 7 4 8 3 4 -5 -5 -8 -12 -9 -19 -3 -7 5
-19 12 -27 15 -10 4 -7 6 8 6 12 1 22 -4 22 -10z m100 -25 c0 -17 -26 -24 -61
-17 l-31 6 28 12 c36 15 64 15 64 -1z m-120 -4 c0 -5 -8 -10 -17 -10 -15 0
-16 2 -3 10 19 12 20 12 20 0z m-55 -10 c3 -5 1 -10 -4 -10 -6 0 -11 5 -11 10
0 6 2 10 4 10 3 0 8 -4 11 -10z m5 -110 c0 -5 -9 -14 -20 -20 -11 -6 -20 -8
-20 -4 0 3 -16 -4 -36 -15 -38 -23 -69 -18 -36 5 18 12 85 40 105 43 4 0 7 -3
7 -9z m-191 -12 c11 -10 13 -10 7 0 -4 6 -2 12 3 12 6 0 11 -6 11 -14 0 -16
-27 -29 -41 -20 -5 3 -9 0 -9 -5 0 -6 -7 -11 -15 -11 -19 0 -19 19 0 26 8 4
12 10 9 15 -8 14 20 11 35 -3z m211 -18 c0 -5 -6 -10 -14 -10 -8 0 -17 -6 -19
-12 -4 -8 -6 -7 -6 4 -1 15 11 25 32 27 4 1 7 -3 7 -9z m168 -14 c-12 -7 -22
-18 -20 -24 1 -7 -2 -12 -8 -12 -5 0 -10 4 -10 10 0 5 -7 7 -15 4 -11 -5 -12
-9 -2 -18 25 -25 48 -27 65 -6 12 15 33 22 72 25 50 5 53 4 35 -10 -11 -8 -25
-19 -32 -25 -7 -5 -19 -10 -28 -10 -8 0 -15 -5 -15 -11 0 -8 -12 -10 -35 -6
-33 5 -40 0 -36 -25 0 -4 -18 -12 -42 -18 -23 -6 -49 -13 -57 -16 -8 -3 -15
-5 -15 -4 0 1 -17 -6 -38 -15 -27 -11 -42 -13 -51 -6 -7 6 -16 8 -20 4 -3 -4
-12 -8 -19 -9 -7 -1 -20 -5 -29 -9 -11 -4 -18 -3 -18 4 0 6 -9 2 -20 -9 -11
-11 -28 -20 -37 -21 -10 0 -32 -2 -50 -4 -21 -3 -33 0 -37 11 -3 8 -2 13 2 10
4 -2 14 -1 22 5 10 6 11 9 3 9 -7 0 -13 11 -13 25 0 30 13 33 26 5 7 -14 13
-17 24 -10 13 8 12 10 -2 10 -10 0 -18 4 -18 9 0 10 72 7 90 -4 9 -5 11 -4 6
3 -4 7 -2 12 3 12 6 0 10 10 8 22 -2 20 3 23 43 23 34 0 44 4 42 14 -3 12 0
12 12 2 13 -11 20 -8 45 18 29 31 48 41 35 19 -4 -7 3 -4 15 7 13 11 26 19 30
19 3 -1 11 0 16 2 69 23 117 22 73 0z m-341 -23 c-17 -4 -17 -6 -2 -23 14 -16
14 -18 0 -24 -9 -3 -13 -2 -10 4 3 6 4 10 1 10 -2 0 -13 3 -23 6 -15 6 -16 4
-5 -7 17 -19 15 -34 -3 -19 -8 7 -15 8 -15 3 0 -7 -22 -9 -62 -4 -4 1 -6 10
-5 20 0 11 6 17 14 14 19 -8 65 6 58 17 -4 6 10 10 32 9 21 -1 30 -3 20 -6z
m63 -23 c0 -5 -2 -10 -4 -10 -3 0 -8 5 -11 10 -3 6 -1 10 4 10 6 0 11 -4 11
-10z m100 6 c0 -2 -7 -7 -16 -10 -8 -3 -12 -2 -9 4 6 10 25 14 25 6z m-309
-148 c11 -21 12 -20 -21 -23 -14 -2 -35 -5 -47 -8 -13 -3 -25 -2 -28 4 -10 15
37 28 64 17 36 -13 36 -3 -1 15 l-33 17 28 -2 c16 -2 33 -10 38 -20z"/>
<path d="M1050 2236 c-6 -20 -16 -36 -21 -36 -5 0 -9 -9 -9 -20 0 -10 -5 -31
-12 -45 -6 -14 -8 -28 -4 -32 10 -10 27 11 29 36 1 11 5 21 10 21 4 0 5 5 2
10 -3 6 -3 10 2 10 4 0 15 13 24 28 13 24 14 32 4 46 -12 15 -14 13 -25 -18z"/>
<path d="M936 2073 c4 -15 11 -29 16 -31 4 -2 8 -10 8 -18 0 -29 27 -13 38 23
9 28 9 39 -1 45 -6 4 -14 2 -18 -4 -4 -7 -13 -6 -28 1 -20 11 -21 10 -15 -16z"/>
<path d="M917 2043 c-4 -3 -6 -18 -6 -32 1 -17 3 -20 6 -8 2 9 8 15 13 12 4
-3 7 2 6 10 -3 19 -11 27 -19 18z"/>
<path d="M950 1990 c0 -5 4 -10 9 -10 6 0 13 5 16 10 3 6 -1 10 -9 10 -9 0
-16 -4 -16 -10z"/>
<path d="M893 1974 c4 -7 1 -14 -7 -17 -9 -4 -12 -14 -9 -27 5 -20 6 -19 20 6
10 21 11 30 2 38 -9 8 -10 8 -6 0z"/>
<path d="M936 1961 c-4 -5 3 -7 14 -4 23 6 26 13 6 13 -8 0 -17 -4 -20 -9z"/>
<path d="M761 1946 c-7 -8 -10 -19 -7 -25 4 -5 -3 -12 -14 -16 -11 -3 -20 -13
-20 -21 0 -8 -4 -14 -9 -14 -5 0 -7 -9 -4 -20 3 -12 0 -20 -6 -20 -7 0 -18
-15 -26 -32 -8 -18 -14 -27 -15 -19 0 8 -3 11 -6 8 -4 -3 -15 -2 -26 4 -16 9
-19 7 -17 -8 2 -10 -5 -31 -16 -46 -23 -36 -28 -75 -13 -104 8 -17 8 -26 -2
-38 -10 -12 -10 -15 2 -15 7 0 22 13 31 29 17 29 17 30 -3 26 -11 -2 -20 0
-20 5 0 19 13 40 25 40 19 0 65 58 65 81 0 11 7 22 15 26 21 7 45 55 45 88 0
14 5 24 11 23 7 -2 15 10 20 26 10 35 6 42 -10 22z"/>
<path d="M541 1655 c-7 -16 -14 -41 -15 -55 -1 -14 -7 -24 -13 -23 -6 1 -13
-9 -16 -23 -7 -36 12 -25 40 25 15 28 23 55 21 75 l-4 31 -13 -30z"/>
<path d="M459 1483 c-1 -5 -1 -11 0 -15 0 -5 -3 -8 -8 -8 -5 0 -12 -7 -15 -16
-5 -13 -4 -14 7 -6 8 7 16 9 19 6 3 -2 8 7 10 21 3 14 1 25 -3 25 -5 0 -10 -3
-10 -7z"/>
<path d="M505 1430 c-3 -5 -1 -10 4 -10 6 0 11 5 11 10 0 6 -2 10 -4 10 -3 0
-8 -4 -11 -10z"/>
<path d="M420 1410 c-13 -8 -13 -10 2 -10 9 0 20 5 23 10 8 13 -5 13 -25 0z"/>
<path d="M3452 1553 c-15 -12 -14 -13 12 -7 23 6 27 4 21 -7 -5 -8 -4 -10 0
-6 30 27 -1 45 -33 20z"/>
<path d="M3580 1474 c0 -13 18 -39 24 -34 2 3 -2 14 -10 24 -8 11 -14 16 -14
10z"/>
<path d="M3681 1466 c-10 -12 -8 -13 8 -9 12 3 18 9 15 14 -7 12 -10 11 -23
-5z"/>
<path d="M3080 1195 c-7 -9 -8 -15 -2 -15 5 0 12 7 16 15 3 8 4 15 2 15 -2 0
-9 -7 -16 -15z"/>
<path d="M2162 3699 c-1 -17 -10 -45 -19 -62 -12 -25 -16 -65 -18 -182 -1 -82
2 -168 7 -190 8 -43 25 -155 32 -220 7 -59 42 -151 85 -225 22 -36 41 -76 42
-89 3 -15 17 -31 36 -42 17 -10 47 -35 66 -56 32 -34 37 -36 61 -25 27 12 33
31 16 60 -5 9 -14 29 -20 45 -6 17 -17 27 -29 27 -27 0 -126 111 -155 173 -32
72 -47 209 -44 417 1 123 -2 186 -11 213 -9 25 -11 58 -6 98 5 41 3 64 -5 74
-20 24 -36 17 -38 -16z"/>
<path d="M2447 3693 c-4 -3 -7 -15 -7 -25 0 -17 -10 -22 -36 -19 -26 3 -37
-29 -31 -88 7 -64 -5 -116 -29 -125 -11 -4 -13 -13 -9 -28 4 -11 8 -80 9 -152
4 -238 66 -424 165 -489 22 -14 56 -43 76 -64 40 -41 54 -46 71 -25 9 12 18
11 58 -6 40 -18 48 -19 53 -7 8 22 -194 215 -224 215 -30 0 -64 45 -84 113
-29 96 -23 219 16 327 24 67 26 84 21 165 -4 50 -6 101 -6 114 0 33 -19 101
-29 101 -4 0 -11 -3 -14 -7z"/>
<path d="M1975 3510 c-3 -5 -1 -18 5 -29 5 -11 10 -30 10 -43 0 -13 5 -29 12
-36 9 -9 9 -24 0 -64 -7 -29 -14 -64 -17 -77 -2 -12 -9 -29 -15 -36 -15 -18
-16 -237 -1 -315 7 -36 27 -94 45 -130 18 -36 36 -78 40 -94 7 -28 61 -113 81
-128 6 -4 16 -6 24 -3 7 3 20 0 27 -6 21 -17 41 -4 46 30 4 27 -3 39 -50 86
-30 30 -58 55 -62 55 -13 0 -48 76 -58 126 -7 33 -8 63 -2 85 13 48 16 191 7
344 -8 131 -19 192 -40 226 -13 20 -42 25 -52 9z"/>
<path d="M2350 877 c-14 -8 -55 -19 -90 -26 -60 -12 -79 -23 -80 -45 0 -8 52
-3 110 11 14 3 21 2 17 -3 -5 -5 -32 -13 -60 -19 -29 -5 -51 -14 -49 -20 3
-14 55 -27 62 -16 3 5 19 11 35 13 24 2 31 8 33 31 2 18 9 27 21 27 9 0 26 6
37 14 17 13 17 16 4 30 -13 13 -19 14 -40 3z"/>
<path d="M2117 808 c2 -5 10 -8 18 -8 8 0 16 3 18 8 3 4 -5 7 -18 7 -13 0 -21
-3 -18 -7z"/>
<path d="M1990 797 c0 -16 53 -31 58 -17 2 5 10 6 19 3 11 -5 14 -3 9 6 -5 7
-17 10 -29 7 -11 -3 -29 -1 -39 5 -13 7 -18 6 -18 -4z"/>
<path d="M1864 744 c3 -9 6 -18 6 -20 0 -2 9 -4 20 -4 31 0 26 35 -6 38 -20 1
-25 -2 -20 -14z"/>
<path d="M1934 748 c-4 -5 0 -14 7 -19 20 -13 29 -11 29 5 0 18 -27 29 -36 14z"/>
<path d="M2052 745 c-7 -8 -11 -15 -10 -16 58 -13 88 -1 49 21 -24 12 -23 12
-39 -5z"/>
<path d="M1980 732 c0 -4 9 -8 20 -8 11 0 20 4 20 8 0 4 -9 8 -20 8 -11 0 -20
-4 -20 -8z"/>
<path d="M2136 715 c4 -8 11 -15 16 -15 6 0 5 6 -2 15 -7 8 -14 15 -16 15 -2
0 -1 -7 2 -15z"/>
<path d="M1738 703 c7 -3 16 -2 19 1 4 3 -2 6 -13 5 -11 0 -14 -3 -6 -6z"/>
<path d="M1997 686 c-3 -7 -24 -11 -56 -10 -30 2 -49 -1 -46 -7 4 -5 14 -9 23
-10 11 0 12 -2 4 -6 -6 -2 -10 -8 -8 -12 3 -4 -25 -8 -62 -9 -36 -1 -69 -6
-72 -10 -3 -5 -13 -11 -22 -15 -13 -4 -16 -2 -12 11 5 15 4 15 -6 0 -11 -18
-36 -26 -26 -10 7 12 -39 36 -52 28 -6 -3 -30 0 -53 8 -41 14 -66 13 -43 -2 6
-4 14 -17 18 -29 7 -22 26 -32 26 -14 0 5 9 11 20 14 11 3 18 2 15 -3 -9 -15
21 -28 75 -31 45 -3 54 -1 52 11 -3 11 -1 12 8 4 15 -15 3 -57 -12 -48 -14 9
-237 9 -245 0 -3 -3 -12 -1 -19 5 -19 16 -74 22 -74 9 0 -7 -7 -5 -16 4 -20
20 -30 20 -38 1 -8 -22 21 -31 55 -18 22 9 26 8 22 -3 -3 -8 0 -14 6 -14 6 0
11 5 11 11 0 5 4 8 9 5 5 -3 7 -14 4 -24 -3 -15 -13 -18 -41 -17 -20 2 -42 -4
-50 -12 -12 -12 -17 -12 -38 2 -28 18 -38 19 -28 3 5 -8 2 -9 -12 -3 -10 4
-42 13 -71 19 -28 6 -55 15 -59 19 -4 4 -19 7 -33 7 -24 -1 -25 -2 -8 -14 16
-13 16 -14 -4 -19 -24 -6 -49 1 -49 14 0 4 7 6 15 3 18 -7 20 17 3 34 -19 19
-28 14 -28 -18 l0 -30 -62 4 c-33 3 -64 9 -67 14 -3 5 -15 6 -26 2 -18 -7 -18
-9 8 -19 16 -6 31 -11 33 -11 3 0 12 -6 20 -14 8 -8 25 -13 38 -10 14 2 28 0
31 -6 4 -6 11 -7 17 -4 17 11 177 7 248 -6 35 -6 109 -12 163 -13 79 0 102 3
111 15 6 9 35 19 66 23 33 4 62 15 73 26 10 11 29 19 42 19 13 0 27 5 30 10 4
6 15 8 26 5 15 -5 19 -1 19 19 0 19 5 26 20 26 29 0 133 29 144 40 5 5 18 10
27 10 9 0 19 8 23 18 3 9 9 23 12 30 3 7 -1 12 -10 12 -9 0 -16 -5 -16 -11 0
-6 -5 -7 -12 -2 -21 12 -36 12 -41 -1z m-458 -166 c21 0 23 -21 4 -38 -7 -7
-13 -9 -13 -4 0 6 -9 12 -20 15 -11 3 -20 13 -20 22 0 12 5 15 16 11 9 -3 24
-6 33 -6z"/>
<path d="M1730 680 c0 -6 1 -10 3 -10 1 0 18 -4 36 -10 38 -11 31 0 -11 18
-17 7 -28 8 -28 2z"/>
<path d="M1417 633 c-13 -12 -7 -22 10 -16 11 4 14 3 9 -5 -4 -7 -3 -12 3 -12
17 0 24 22 10 31 -17 11 -24 11 -32 2z"/>
<path d="M1480 609 c0 -5 5 -7 10 -4 6 3 10 8 10 11 0 2 -4 4 -10 4 -5 0 -10
-5 -10 -11z"/>
<path d="M1205 601 c-3 -5 5 -17 17 -25 42 -29 54 -13 13 17 -13 9 -26 13 -30
8z"/>
<path d="M1270 580 c0 -5 7 -10 15 -10 8 0 15 -5 15 -11 0 -5 4 -8 9 -4 6 3
15 -3 20 -12 10 -17 12 -17 27 2 14 19 14 20 -8 23 -13 2 -27 8 -32 13 -13 12
-46 12 -46 -1z"/>
<path d="M825 511 c-6 -11 40 -61 56 -61 6 0 23 -8 37 -19 24 -16 68 -32 97
-35 6 -1 25 -9 43 -19 18 -10 37 -15 42 -12 5 3 18 2 27 -4 26 -13 75 -1 80
20 5 16 15 18 72 17 115 -2 151 1 151 15 0 12 -97 21 -252 21 -32 1 -58 5 -58
9 0 5 -22 6 -49 4 -33 -3 -52 -1 -55 6 -3 9 -5 8 -5 0 -1 -15 -31 -18 -31 -4
0 11 -39 26 -57 23 -7 -2 -13 2 -13 9 0 7 -9 9 -21 6 -15 -4 -23 0 -26 14 -6
20 -28 26 -38 10z m280 -81 c-3 -5 -11 -10 -16 -10 -6 0 -7 5 -4 10 3 6 11 10
16 10 6 0 7 -4 4 -10z"/>
</g>
</svg>
