<svg id="svg" version="1.1" xmlns="http://www.w3.org/2000/svg" xmlns:xlink="http://www.w3.org/1999/xlink" width="400" height="608.8888888888889" viewBox="0, 0, 400,608.8888888888889"><g id="svgg"><path id="path0" d="M81.558 27.514 C 81.154 27.797,80.531 28.646,80.173 29.400 C 79.816 30.154,79.191 30.876,78.786 31.004 C 78.067 31.233,76.567 32.811,75.044 34.942 C 74.356 35.905,74.048 36.000,71.614 36.000 C 68.717 36.000,68.197 36.288,66.796 38.670 C 66.385 39.368,65.408 40.244,64.624 40.615 C 63.841 40.987,63.200 41.508,63.200 41.774 C 63.200 43.457,60.961 44.800,58.153 44.800 C 54.539 44.800,54.000 45.349,54.000 49.035 C 54.000 51.493,53.916 51.736,52.700 52.826 C 51.415 53.977,50.260 55.114,48.106 57.346 C 47.074 58.416,46.849 58.477,44.741 58.257 C 41.316 57.899,40.400 58.765,40.400 62.359 C 40.400 65.039,39.505 66.800,38.144 66.800 C 37.636 66.800,36.198 68.376,35.879 69.283 C 35.746 69.659,34.952 70.399,34.113 70.929 C 33.274 71.458,32.353 72.174,32.066 72.521 C 31.370 73.359,31.340 428.521,32.035 444.000 C 32.453 453.310,32.759 455.841,34.139 461.400 C 35.029 464.986,36.001 470.434,36.000 471.840 C 36.000 472.522,36.159 473.602,36.353 474.240 C 36.548 474.878,36.946 476.210,37.239 477.200 C 37.532 478.190,38.082 479.540,38.461 480.200 C 39.290 481.643,40.147 484.215,40.793 487.200 C 41.055 488.410,41.343 489.670,41.432 490.000 C 41.521 490.330,42.280 491.350,43.119 492.266 C 44.459 493.729,44.709 494.328,45.175 497.195 C 45.677 500.289,45.782 500.509,47.195 501.444 C 48.820 502.520,49.599 503.838,49.602 505.519 C 49.606 507.449,50.448 509.773,51.588 511.000 C 52.201 511.660,53.259 513.384,53.939 514.832 C 54.619 516.280,55.686 517.900,56.310 518.432 C 56.933 518.964,58.039 520.615,58.768 522.100 C 59.497 523.585,60.247 524.800,60.434 524.800 C 60.622 524.800,61.670 526.105,62.764 527.700 C 63.858 529.295,65.171 530.984,65.683 531.452 C 66.195 531.921,66.881 532.821,67.207 533.452 C 67.913 534.819,68.054 534.993,70.500 537.528 C 71.545 538.611,72.400 539.679,72.400 539.902 C 72.400 540.124,73.195 540.913,74.167 541.653 C 75.138 542.394,76.225 543.489,76.581 544.086 C 76.937 544.683,77.762 545.487,78.414 545.872 C 79.066 546.257,79.600 546.688,79.600 546.830 C 79.600 547.252,82.314 550.000,82.730 550.000 C 82.941 550.000,83.988 550.864,85.057 551.921 C 86.125 552.978,87.810 554.402,88.800 555.086 C 89.790 555.769,90.889 556.660,91.243 557.064 C 92.173 558.128,93.394 559.073,94.739 559.768 C 95.386 560.103,96.448 560.910,97.099 561.561 C 97.751 562.212,99.357 563.308,100.669 563.996 C 102.042 564.715,103.350 565.746,103.750 566.423 C 104.132 567.070,104.687 567.600,104.982 567.600 C 105.761 567.600,110.029 569.901,111.200 570.952 C 112.653 572.255,114.178 572.800,116.377 572.800 C 118.380 572.800,118.850 573.102,121.487 576.083 C 122.473 577.197,124.530 577.590,129.405 577.597 C 132.457 577.600,132.721 577.773,134.372 580.853 C 134.758 581.571,135.326 582.275,135.636 582.417 C 135.946 582.559,136.650 582.913,137.200 583.204 C 142.681 586.101,144.609 586.400,157.788 586.400 L 167.517 586.400 168.769 587.900 C 171.317 590.953,170.956 590.800,175.610 590.800 C 180.525 590.800,182.197 591.247,182.986 592.773 C 183.942 594.621,184.239 594.682,193.460 594.928 C 203.171 595.186,203.086 595.203,204.347 592.744 C 205.312 590.862,205.865 590.801,222.119 590.786 C 233.416 590.775,238.287 590.623,240.800 590.203 C 245.917 589.346,246.430 589.178,247.735 587.931 C 249.102 586.625,249.158 586.609,254.600 585.991 C 257.835 585.624,259.062 585.286,261.014 584.224 C 262.341 583.501,264.681 582.597,266.214 582.215 C 269.507 581.393,271.215 580.723,272.016 579.939 C 272.772 579.199,276.202 577.600,277.034 577.600 C 277.754 577.600,279.814 576.519,280.867 575.590 C 281.842 574.729,285.487 572.800,286.139 572.800 C 286.683 572.800,288.800 570.522,288.800 569.937 C 288.800 569.492,290.375 568.710,292.000 568.348 C 292.770 568.176,293.930 567.910,294.578 567.756 C 295.225 567.603,296.193 566.957,296.728 566.321 C 297.263 565.685,298.366 564.826,299.178 564.411 C 299.991 563.997,301.145 562.918,301.742 562.015 C 302.383 561.047,303.439 560.110,304.315 559.731 C 305.132 559.378,306.250 558.897,306.800 558.662 C 308.806 557.805,309.351 557.082,310.768 553.400 C 311.024 552.735,312.028 551.665,313.018 551.000 C 314.001 550.340,314.899 549.530,315.013 549.200 C 315.338 548.263,316.905 546.657,318.101 546.036 C 318.698 545.726,319.279 545.186,319.391 544.836 C 319.692 543.899,321.252 542.271,322.423 541.671 C 322.986 541.383,323.780 540.529,324.186 539.773 C 324.593 539.018,325.045 538.400,325.191 538.400 C 326.793 538.400,328.800 535.410,328.800 533.023 C 328.800 530.588,329.954 528.400,331.239 528.400 C 332.365 528.400,333.200 526.556,333.200 524.071 C 333.200 521.418,334.040 520.032,336.036 519.391 C 336.386 519.279,336.918 518.695,337.220 518.093 C 337.851 516.833,339.395 515.319,340.362 515.012 C 340.728 514.896,341.368 514.216,341.785 513.501 C 342.589 512.121,343.898 510.800,344.461 510.800 C 345.605 510.800,346.400 509.114,346.400 506.689 C 346.400 503.801,346.961 502.741,349.000 501.773 C 349.754 501.416,350.481 500.774,350.616 500.349 C 350.905 499.441,352.270 497.981,353.403 497.370 C 353.841 497.134,354.650 496.058,355.200 494.979 C 355.750 493.901,356.753 492.474,357.428 491.809 C 358.654 490.602,359.090 489.574,359.979 485.800 C 360.806 482.290,361.353 480.633,362.120 479.310 C 363.599 476.757,363.971 473.805,363.986 464.480 C 364.001 454.652,364.163 453.858,366.414 452.528 C 367.085 452.132,367.715 451.446,367.814 451.004 C 369.128 445.183,369.381 82.275,368.072 81.154 C 367.671 80.811,366.771 80.277,366.072 79.968 C 365.372 79.658,364.800 79.179,364.800 78.902 C 364.800 78.626,364.604 78.400,364.364 78.400 C 364.054 78.400,364.011 76.375,364.215 71.434 L 364.504 64.468 363.422 63.385 C 362.408 62.371,362.190 62.320,359.939 62.575 L 357.538 62.847 356.183 61.323 C 354.500 59.432,354.166 59.098,352.300 57.439 C 350.851 56.151,350.800 56.015,350.800 53.452 L 350.800 50.799 348.845 49.394 C 346.661 47.825,346.353 47.126,346.666 44.451 C 346.841 42.946,346.719 42.395,346.012 41.500 L 345.142 40.400 337.841 40.400 C 328.418 40.400,328.800 40.690,328.800 33.536 C 328.800 29.091,328.713 28.445,328.027 27.825 C 327.005 26.899,82.875 26.592,81.558 27.514 M303.039 45.559 C 306.943 46.391,307.405 46.532,309.898 47.645 C 310.833 48.062,313.083 48.695,314.898 49.053 C 317.885 49.641,320.676 50.998,321.133 52.083 C 321.207 52.258,321.427 52.400,321.623 52.400 C 322.664 52.400,327.394 54.985,328.571 56.198 C 329.320 56.969,330.118 57.600,330.345 57.600 C 330.838 57.600,334.800 61.561,334.800 62.054 C 334.800 62.244,334.988 62.400,335.218 62.400 C 335.804 62.400,337.454 64.114,337.754 65.034 C 337.891 65.455,338.690 66.520,339.530 67.400 C 341.041 68.984,343.200 72.970,343.200 74.175 C 343.200 74.519,343.380 74.800,343.600 74.800 C 343.820 74.800,344.000 75.070,344.000 75.400 C 344.000 75.730,344.139 76.000,344.309 76.000 C 344.983 76.000,346.373 79.488,347.178 83.200 C 347.440 84.410,348.200 86.623,348.867 88.117 C 351.358 93.702,351.229 82.741,351.063 274.922 C 350.955 399.151,350.784 450.611,350.473 452.600 C 350.020 455.486,349.591 457.427,348.792 460.200 C 348.268 462.018,347.096 467.646,346.375 471.800 C 346.108 473.340,345.311 475.860,344.604 477.400 C 342.674 481.602,342.400 482.349,342.400 483.405 C 342.400 484.383,341.582 486.564,340.527 488.400 C 339.594 490.025,337.972 493.656,337.315 495.590 C 336.979 496.580,336.286 497.752,335.776 498.195 C 334.855 498.994,333.577 501.583,333.054 503.705 C 332.905 504.312,332.258 505.277,331.617 505.848 C 330.976 506.419,329.977 507.856,329.397 509.042 C 328.817 510.227,327.545 512.176,326.571 513.372 C 325.597 514.568,324.800 515.738,324.800 515.973 C 324.800 516.208,324.620 516.400,324.400 516.400 C 324.180 516.400,324.000 516.741,324.000 517.159 C 324.000 517.576,323.413 518.432,322.696 519.062 C 321.979 519.692,320.961 520.836,320.433 521.604 C 319.421 523.078,318.191 524.440,313.740 529.017 C 312.233 530.566,310.517 532.366,309.927 533.017 C 308.864 534.189,306.395 536.687,305.658 537.337 C 305.447 537.523,304.460 538.451,303.465 539.399 C 302.470 540.347,300.872 541.663,299.914 542.322 C 298.956 542.981,297.825 543.982,297.401 544.547 C 296.977 545.111,296.083 545.798,295.415 546.072 C 294.237 546.555,293.786 546.850,292.615 547.900 C 292.308 548.175,291.946 548.400,291.810 548.400 C 291.675 548.400,291.130 548.805,290.601 549.300 C 288.974 550.822,288.451 551.200,287.979 551.200 C 287.413 551.200,285.206 552.739,284.400 553.694 C 284.070 554.086,282.579 554.918,281.086 555.543 C 279.593 556.169,277.914 557.078,277.355 557.564 C 276.150 558.612,273.753 560.000,273.148 560.000 C 272.490 560.000,270.006 561.247,267.879 562.645 C 266.823 563.339,265.113 564.122,264.079 564.384 C 263.046 564.646,261.887 565.027,261.505 565.230 C 261.123 565.434,260.600 565.600,260.343 565.600 C 260.086 565.600,259.319 566.016,258.638 566.525 C 257.195 567.602,255.840 568.123,252.800 568.767 C 249.893 569.383,247.495 570.074,246.999 570.439 C 245.363 571.642,240.739 572.841,233.200 574.019 C 231.072 574.351,229.385 574.696,225.600 575.573 C 213.598 578.355,187.069 578.579,176.400 575.990 C 174.964 575.642,172.503 575.085,169.500 574.429 C 168.565 574.224,165.910 573.761,163.600 573.399 C 159.076 572.690,154.567 571.440,153.600 570.627 C 153.005 570.126,151.434 569.671,147.200 568.772 C 145.990 568.516,144.370 567.969,143.600 567.557 C 140.527 565.915,138.568 565.077,136.239 564.411 C 134.898 564.027,132.657 562.974,131.260 562.071 C 129.863 561.168,128.333 560.318,127.860 560.182 C 126.163 559.696,123.745 558.456,123.191 557.790 C 122.630 557.113,118.824 555.200,118.039 555.200 C 117.812 555.200,116.733 554.406,115.640 553.435 C 114.547 552.465,113.245 551.541,112.747 551.383 C 112.250 551.225,110.483 550.078,108.821 548.834 C 107.159 547.591,105.290 546.315,104.666 546.001 C 104.043 545.686,103.187 544.943,102.764 544.350 C 102.342 543.756,101.196 542.765,100.218 542.146 C 99.240 541.527,98.236 540.642,97.988 540.178 C 97.740 539.715,97.010 539.024,96.364 538.643 C 95.289 538.007,89.751 532.684,87.762 530.373 C 87.301 529.838,86.526 529.130,86.039 528.800 C 85.552 528.470,84.674 527.444,84.087 526.520 C 83.501 525.595,82.634 524.632,82.161 524.379 C 81.689 524.126,80.887 523.180,80.379 522.277 C 79.871 521.374,78.678 519.857,77.728 518.907 C 76.778 517.957,76.000 516.999,76.000 516.779 C 76.000 516.559,74.952 514.988,73.670 513.289 C 72.389 511.590,71.104 509.608,70.816 508.885 C 70.527 508.162,69.719 506.992,69.020 506.285 C 68.321 505.578,67.261 503.773,66.665 502.272 C 66.069 500.772,65.149 499.079,64.621 498.509 C 64.092 497.939,63.370 496.647,63.015 495.637 C 62.660 494.626,62.106 493.290,61.785 492.668 C 61.463 492.045,61.200 491.357,61.200 491.140 C 61.200 490.922,60.660 489.959,60.000 489.000 C 59.340 488.041,58.800 486.995,58.800 486.677 C 58.800 486.358,58.530 485.451,58.200 484.662 C 57.870 483.872,57.600 482.835,57.600 482.358 C 57.600 481.881,56.872 479.993,55.982 478.163 C 54.477 475.067,54.146 473.856,53.207 468.000 C 52.610 464.269,52.346 463.105,51.395 460.000 C 49.281 453.094,49.400 464.319,49.400 272.400 C 49.400 80.015,49.271 91.908,51.398 87.600 C 51.887 86.610,52.697 84.180,53.199 82.200 C 54.132 78.516,54.890 76.653,55.842 75.701 C 56.138 75.405,56.666 74.496,57.015 73.681 C 57.363 72.867,57.908 71.690,58.224 71.068 C 58.541 70.445,58.808 69.725,58.818 69.468 C 58.828 69.210,59.637 68.190,60.615 67.200 C 61.593 66.210,62.395 65.220,62.397 65.000 C 62.403 64.424,64.013 62.699,65.321 61.867 C 65.938 61.474,66.556 60.849,66.694 60.477 C 66.998 59.657,68.245 58.508,69.600 57.802 C 70.150 57.516,71.152 56.674,71.827 55.932 C 72.543 55.144,74.208 54.099,75.827 53.420 C 77.352 52.781,79.188 51.752,79.907 51.135 C 80.626 50.517,81.706 49.904,82.307 49.773 C 82.908 49.642,83.850 49.385,84.400 49.201 C 84.950 49.017,86.053 48.776,86.851 48.666 C 87.649 48.556,89.064 48.098,89.996 47.647 C 90.928 47.197,93.336 46.446,95.346 45.978 C 97.356 45.510,99.180 45.068,99.400 44.995 C 101.432 44.325,299.826 44.874,303.039 45.559 M243.200 67.261 C 241.246 67.804,240.800 68.579,240.800 71.427 C 240.800 76.025,240.507 75.984,273.776 75.993 C 299.385 76.000,304.800 76.224,304.800 77.280 C 304.800 77.456,304.988 77.600,305.217 77.600 C 305.447 77.600,306.120 78.050,306.713 78.600 C 307.307 79.150,307.994 79.600,308.242 79.600 C 309.093 79.600,310.824 81.278,311.658 82.913 C 312.117 83.813,312.743 84.800,313.049 85.106 C 315.111 87.168,315.269 88.761,315.555 110.400 C 315.864 133.799,315.661 132.782,320.024 132.794 C 324.509 132.806,324.765 131.694,324.785 112.063 C 324.803 95.435,324.030 84.800,322.804 84.800 C 322.403 84.800,320.248 80.147,319.781 78.275 C 319.617 77.618,318.791 76.620,317.794 75.875 C 316.856 75.174,315.755 74.110,315.348 73.512 C 314.942 72.913,314.067 72.161,313.405 71.840 C 311.021 70.687,308.401 69.600,308.004 69.600 C 307.782 69.600,307.598 69.465,307.595 69.300 C 307.587 68.746,304.623 67.653,301.967 67.225 C 298.563 66.675,245.188 66.709,243.200 67.261 M317.029 161.428 C 315.905 162.552,315.800 164.009,315.800 178.418 C 315.800 195.596,315.589 194.800,320.142 194.800 C 322.778 194.800,323.107 194.712,323.497 193.900 C 325.463 189.806,325.289 163.830,323.280 161.500 C 322.465 160.555,317.954 160.503,317.029 161.428 M316.530 224.250 C 315.419 225.947,315.520 236.765,316.662 238.299 C 317.784 239.806,321.874 240.131,323.104 238.811 C 324.950 236.830,325.135 225.504,323.351 223.700 C 322.317 222.654,317.312 223.057,316.530 224.250 " stroke="none" fill="#1d242c" fill-rule="evenodd"></path><path id="path1" d="M80.576 26.924 C 80.122 27.406,79.540 28.296,79.283 28.903 C 79.025 29.510,78.214 30.292,77.481 30.642 C 76.722 31.004,75.688 32.038,75.083 33.039 L 74.020 34.800 71.572 34.800 C 68.655 34.800,67.281 35.494,66.183 37.522 C 65.753 38.318,64.770 39.304,64.000 39.713 C 63.230 40.122,62.112 41.254,61.515 42.228 L 60.431 44.000 57.660 44.000 C 53.703 44.000,53.177 44.514,52.806 48.735 C 52.647 50.539,52.446 52.063,52.359 52.121 C 52.271 52.179,51.681 52.489,51.046 52.810 C 50.411 53.131,49.601 53.822,49.246 54.345 C 47.510 56.905,46.917 57.254,44.494 57.150 C 40.365 56.971,38.998 58.375,39.464 62.312 C 39.732 64.570,39.371 65.184,37.053 66.418 C 36.364 66.785,35.530 67.600,35.200 68.228 C 34.395 69.762,33.773 70.400,33.083 70.400 C 32.767 70.400,32.035 70.875,31.455 71.455 L 30.400 72.509 30.400 256.442 C 30.400 476.438,30.054 459.960,35.016 476.224 C 35.557 477.997,36.000 480.021,36.000 480.722 C 36.000 481.605,36.414 482.461,37.342 483.499 C 39.176 485.550,39.600 486.470,39.600 488.400 C 39.600 490.475,40.059 491.364,42.251 493.527 C 43.953 495.207,44.000 495.322,44.000 497.802 C 44.000 500.136,44.103 500.444,45.230 501.475 C 48.422 504.394,48.771 505.090,48.802 508.600 C 48.817 510.368,49.701 512.608,51.029 514.247 C 51.673 515.042,52.581 516.354,53.047 517.163 C 53.513 517.972,54.725 519.436,55.741 520.417 C 56.909 521.545,57.589 522.550,57.593 523.153 C 57.600 524.091,58.895 526.618,59.770 527.400 C 60.017 527.620,60.881 528.700,61.692 529.800 C 62.503 530.900,63.827 532.430,64.636 533.200 C 65.444 533.970,66.453 535.410,66.877 536.400 C 67.302 537.390,68.081 538.650,68.609 539.200 C 69.137 539.750,70.701 541.420,72.084 542.912 C 76.698 547.886,80.370 551.200,81.267 551.200 C 82.110 551.200,84.282 552.999,84.583 553.946 C 84.707 554.338,85.529 555.063,86.410 555.558 C 87.291 556.053,88.504 557.087,89.106 557.857 C 89.708 558.626,90.661 559.500,91.225 559.799 C 91.789 560.098,93.141 561.121,94.229 562.072 C 96.757 564.279,97.704 564.800,99.195 564.800 C 99.858 564.800,100.400 564.950,100.400 565.132 C 100.400 565.315,100.850 565.706,101.400 566.000 C 101.950 566.294,102.400 566.743,102.400 566.998 C 102.400 567.643,104.011 569.051,105.144 569.395 C 105.664 569.553,106.762 570.290,107.585 571.034 C 109.847 573.078,112.176 573.981,115.211 573.991 C 117.871 574.000,119.600 574.700,119.600 575.768 C 119.600 577.658,121.531 578.400,126.455 578.400 C 131.683 578.400,132.510 578.739,133.021 581.090 C 134.204 586.531,136.624 587.248,154.615 587.492 L 167.429 587.666 168.394 589.133 C 170.196 591.874,170.476 591.981,175.881 591.991 C 180.665 592.000,180.777 592.020,181.481 593.028 C 183.592 596.045,185.370 596.393,198.726 596.399 C 202.373 596.400,204.757 595.511,204.813 594.129 C 204.821 593.948,205.164 593.395,205.577 592.900 L 206.328 592.000 222.264 592.001 C 231.047 592.002,240.175 591.803,242.600 591.558 L 247.000 591.114 248.655 589.418 L 250.310 587.723 254.055 587.481 C 258.605 587.186,262.868 586.304,266.112 584.986 C 267.446 584.444,269.024 584.000,269.619 584.000 C 271.907 584.000,273.301 583.431,275.201 581.723 C 277.163 579.959,278.858 579.200,280.835 579.200 C 281.503 579.200,282.659 578.519,284.061 577.300 C 285.264 576.255,286.744 575.040,287.351 574.600 C 287.957 574.160,288.812 573.021,289.251 572.070 C 290.159 570.098,291.768 569.200,294.392 569.200 C 296.272 569.200,299.600 567.766,299.600 566.956 C 299.600 566.650,299.771 566.400,299.979 566.400 C 300.765 566.400,302.306 564.550,302.586 563.271 C 302.943 561.636,304.567 560.562,307.237 560.195 C 309.732 559.852,311.020 558.592,311.389 556.137 C 311.786 553.487,312.367 552.453,313.855 551.747 C 314.615 551.387,315.604 550.380,316.201 549.362 C 316.769 548.393,317.451 547.594,317.717 547.587 C 318.443 547.567,319.717 546.371,320.685 544.800 C 321.159 544.030,322.153 543.076,322.893 542.680 C 323.634 542.284,324.581 541.326,324.999 540.549 C 325.417 539.773,326.258 538.880,326.868 538.565 C 329.056 537.433,329.600 536.466,329.600 533.705 C 329.600 531.239,330.706 529.200,332.043 529.200 C 333.192 529.200,334.000 527.355,334.000 524.730 L 334.000 522.011 335.700 520.906 C 337.615 519.661,338.262 518.995,338.798 517.716 C 339.001 517.230,339.870 516.474,340.729 516.036 C 341.708 515.537,342.541 514.710,342.965 513.818 C 343.379 512.945,344.219 512.101,345.141 511.630 C 347.004 510.680,347.600 509.422,347.600 506.443 C 347.600 504.005,347.896 503.514,350.000 502.468 C 350.550 502.195,351.406 501.266,351.902 500.404 C 352.406 499.526,353.397 498.554,354.150 498.197 C 355.034 497.778,355.746 497.006,356.220 495.956 C 356.617 495.075,357.603 493.831,358.411 493.191 C 359.329 492.464,360.150 491.308,360.597 490.114 C 360.990 489.061,361.452 488.020,361.623 487.799 C 363.888 484.875,364.788 479.390,365.065 466.824 C 365.345 454.131,364.987 455.678,368.336 452.668 L 369.596 451.536 369.698 267.068 C 369.806 71.619,369.889 80.386,367.937 79.793 C 365.246 78.975,365.085 78.440,365.390 71.345 C 365.767 62.556,364.925 61.058,359.739 61.295 C 357.459 61.400,357.454 61.397,356.298 59.695 C 355.661 58.757,354.569 57.697,353.870 57.339 C 352.132 56.449,352.013 56.181,352.006 53.136 C 352.000 50.276,351.975 50.237,348.650 47.844 C 347.684 47.149,347.600 46.858,347.600 44.214 C 347.600 39.521,347.302 39.368,338.466 39.529 C 329.252 39.697,329.800 40.097,329.800 33.198 L 329.800 27.935 328.678 26.968 L 327.555 26.000 204.478 26.024 L 81.400 26.048 80.576 26.924 M328.027 27.825 C 328.713 28.445,328.800 29.091,328.800 33.536 C 328.800 40.690,328.418 40.400,337.841 40.400 L 345.142 40.400 346.012 41.500 C 346.719 42.395,346.841 42.946,346.666 44.451 C 346.353 47.126,346.661 47.825,348.845 49.394 L 350.800 50.799 350.800 53.452 C 350.800 56.015,350.851 56.151,352.300 57.439 C 354.166 59.098,354.500 59.432,356.183 61.323 L 357.538 62.847 359.939 62.575 C 362.190 62.320,362.408 62.371,363.422 63.385 L 364.504 64.468 364.215 71.434 C 364.011 76.375,364.054 78.400,364.364 78.400 C 364.604 78.400,364.800 78.626,364.800 78.902 C 364.800 79.179,365.372 79.658,366.072 79.968 C 366.771 80.277,367.671 80.811,368.072 81.154 C 369.381 82.275,369.128 445.183,367.814 451.004 C 367.715 451.446,367.085 452.132,366.414 452.528 C 364.163 453.858,364.001 454.652,363.986 464.480 C 363.971 473.805,363.599 476.757,362.120 479.310 C 361.353 480.633,360.806 482.290,359.979 485.800 C 359.090 489.574,358.654 490.602,357.428 491.809 C 356.753 492.474,355.750 493.901,355.200 494.979 C 354.650 496.058,353.841 497.134,353.403 497.370 C 352.270 497.981,350.905 499.441,350.616 500.349 C 350.481 500.774,349.754 501.416,349.000 501.773 C 346.961 502.741,346.400 503.801,346.400 506.689 C 346.400 509.114,345.605 510.800,344.461 510.800 C 343.898 510.800,342.589 512.121,341.785 513.501 C 341.368 514.216,340.728 514.896,340.362 515.012 C 339.395 515.319,337.851 516.833,337.220 518.093 C 336.918 518.695,336.386 519.279,336.036 519.391 C 334.040 520.032,333.200 521.418,333.200 524.071 C 333.200 526.556,332.365 528.400,331.239 528.400 C 329.954 528.400,328.800 530.588,328.800 533.023 C 328.800 535.410,326.793 538.400,325.191 538.400 C 325.045 538.400,324.593 539.018,324.186 539.773 C 323.780 540.529,322.986 541.383,322.423 541.671 C 321.252 542.271,319.692 543.899,319.391 544.836 C 319.279 545.186,318.698 545.726,318.101 546.036 C 316.905 546.657,315.338 548.263,315.013 549.200 C 314.899 549.530,314.001 550.340,313.018 551.000 C 312.028 551.665,311.024 552.735,310.768 553.400 C 309.351 557.082,308.806 557.805,306.800 558.662 C 306.250 558.897,305.132 559.378,304.315 559.731 C 303.439 560.110,302.383 561.047,301.742 562.015 C 301.145 562.918,299.991 563.997,299.178 564.411 C 298.366 564.826,297.263 565.685,296.728 566.321 C 296.193 566.957,295.225 567.603,294.578 567.756 C 293.930 567.910,292.770 568.176,292.000 568.348 C 290.375 568.710,288.800 569.492,288.800 569.937 C 288.800 570.522,286.683 572.800,286.139 572.800 C 285.487 572.800,281.842 574.729,280.867 575.590 C 279.814 576.519,277.754 577.600,277.034 577.600 C 276.202 577.600,272.772 579.199,272.016 579.939 C 271.215 580.723,269.507 581.393,266.214 582.215 C 264.681 582.597,262.341 583.501,261.014 584.224 C 259.062 585.286,257.835 585.624,254.600 585.991 C 249.158 586.609,249.102 586.625,247.735 587.931 C 246.430 589.178,245.917 589.346,240.800 590.203 C 238.287 590.623,233.416 590.775,222.119 590.786 C 205.865 590.801,205.312 590.862,204.347 592.744 C 203.086 595.203,203.171 595.186,193.460 594.928 C 184.239 594.682,183.942 594.621,182.986 592.773 C 182.197 591.247,180.525 590.800,175.610 590.800 C 170.956 590.800,171.317 590.953,168.769 587.900 L 167.517 586.400 157.788 586.400 C 144.609 586.400,142.681 586.101,137.200 583.204 C 136.650 582.913,135.946 582.559,135.636 582.417 C 135.326 582.275,134.758 581.571,134.372 580.853 C 132.721 577.773,132.457 577.600,129.405 577.597 C 124.530 577.590,122.473 577.197,121.487 576.083 C 118.850 573.102,118.380 572.800,116.377 572.800 C 114.178 572.800,112.653 572.255,111.200 570.952 C 110.029 569.901,105.761 567.600,104.982 567.600 C 104.687 567.600,104.132 567.070,103.750 566.423 C 103.350 565.746,102.042 564.715,100.669 563.996 C 99.357 563.308,97.751 562.212,97.099 561.561 C 96.448 560.910,95.386 560.103,94.739 559.768 C 93.394 559.073,92.173 558.128,91.243 557.064 C 90.889 556.660,89.790 555.769,88.800 555.086 C 87.810 554.402,86.125 552.978,85.057 551.921 C 83.988 550.864,82.941 550.000,82.730 550.000 C 82.314 550.000,79.600 547.252,79.600 546.830 C 79.600 546.688,79.066 546.257,78.414 545.872 C 77.762 545.487,76.937 544.683,76.581 544.086 C 76.225 543.489,75.138 542.394,74.167 541.653 C 73.195 540.913,72.400 540.124,72.400 539.902 C 72.400 539.679,71.545 538.611,70.500 537.528 C 68.054 534.993,67.913 534.819,67.207 533.452 C 66.881 532.821,66.195 531.921,65.683 531.452 C 65.171 530.984,63.858 529.295,62.764 527.700 C 61.670 526.105,60.622 524.800,60.434 524.800 C 60.247 524.800,59.497 523.585,58.768 522.100 C 58.039 520.615,56.933 518.964,56.310 518.432 C 55.686 517.900,54.619 516.280,53.939 514.832 C 53.259 513.384,52.201 511.660,51.588 511.000 C 50.448 509.773,49.606 507.449,49.602 505.519 C 49.599 503.838,48.820 502.520,47.195 501.444 C 45.782 500.509,45.677 500.289,45.175 497.195 C 44.709 494.328,44.459 493.729,43.119 492.266 C 42.280 491.350,41.521 490.330,41.432 490.000 C 41.343 489.670,41.055 488.410,40.793 487.200 C 40.147 484.215,39.290 481.643,38.461 480.200 C 38.082 479.540,37.532 478.190,37.239 477.200 C 36.946 476.210,36.548 474.878,36.353 474.240 C 36.159 473.602,36.000 472.522,36.000 471.840 C 36.001 470.434,35.029 464.986,34.139 461.400 C 32.759 455.841,32.453 453.310,32.035 444.000 C 31.340 428.521,31.370 73.359,32.066 72.521 C 32.353 72.174,33.274 71.458,34.113 70.929 C 34.952 70.399,35.746 69.659,35.879 69.283 C 36.198 68.376,37.636 66.800,38.144 66.800 C 39.505 66.800,40.400 65.039,40.400 62.359 C 40.400 58.765,41.316 57.899,44.741 58.257 C 46.849 58.477,47.074 58.416,48.106 57.346 C 50.260 55.114,51.415 53.977,52.700 52.826 C 53.916 51.736,54.000 51.493,54.000 49.035 C 54.000 45.349,54.539 44.800,58.153 44.800 C 60.961 44.800,63.200 43.457,63.200 41.774 C 63.200 41.508,63.841 40.987,64.624 40.615 C 65.408 40.244,66.385 39.368,66.796 38.670 C 68.197 36.288,68.717 36.000,71.614 36.000 C 74.048 36.000,74.356 35.905,75.044 34.942 C 76.567 32.811,78.067 31.233,78.786 31.004 C 79.191 30.876,79.816 30.154,80.173 29.400 C 80.531 28.646,81.154 27.797,81.558 27.514 C 82.875 26.592,327.005 26.899,328.027 27.825 M99.400 44.995 C 99.180 45.068,97.356 45.510,95.346 45.978 C 93.336 46.446,90.928 47.197,89.996 47.647 C 89.064 48.098,87.649 48.556,86.851 48.666 C 86.053 48.776,84.950 49.017,84.400 49.201 C 83.850 49.385,82.908 49.642,82.307 49.773 C 81.706 49.904,80.626 50.517,79.907 51.135 C 79.188 51.752,77.352 52.781,75.827 53.420 C 74.208 54.099,72.543 55.144,71.827 55.932 C 71.152 56.674,70.150 57.516,69.600 57.802 C 68.245 58.508,66.998 59.657,66.694 60.477 C 66.556 60.849,65.938 61.474,65.321 61.867 C 64.013 62.699,62.403 64.424,62.397 65.000 C 62.395 65.220,61.593 66.210,60.615 67.200 C 59.637 68.190,58.828 69.210,58.818 69.468 C 58.808 69.725,58.541 70.445,58.224 71.068 C 57.908 71.690,57.363 72.867,57.015 73.681 C 56.666 74.496,56.138 75.405,55.842 75.701 C 54.890 76.653,54.132 78.516,53.199 82.200 C 52.697 84.180,51.887 86.610,51.398 87.600 C 49.271 91.908,49.400 80.015,49.400 272.400 C 49.400 464.319,49.281 453.094,51.395 460.000 C 52.346 463.105,52.610 464.269,53.207 468.000 C 54.146 473.856,54.477 475.067,55.982 478.163 C 56.872 479.993,57.600 481.881,57.600 482.358 C 57.600 482.835,57.870 483.872,58.200 484.662 C 58.530 485.451,58.800 486.358,58.800 486.677 C 58.800 486.995,59.340 488.041,60.000 489.000 C 60.660 489.959,61.200 490.922,61.200 491.140 C 61.200 491.357,61.463 492.045,61.785 492.668 C 62.106 493.290,62.660 494.626,63.015 495.637 C 63.370 496.647,64.092 497.939,64.621 498.509 C 65.149 499.079,66.069 500.772,66.665 502.272 C 67.261 503.773,68.321 505.578,69.020 506.285 C 69.719 506.992,70.527 508.162,70.816 508.885 C 71.104 509.608,72.389 511.590,73.670 513.289 C 74.952 514.988,76.000 516.559,76.000 516.779 C 76.000 516.999,76.778 517.957,77.728 518.907 C 78.678 519.857,79.871 521.374,80.379 522.277 C 80.887 523.180,81.689 524.126,82.161 524.379 C 82.634 524.632,83.501 525.595,84.087 526.520 C 84.674 527.444,85.552 528.470,86.039 528.800 C 86.526 529.130,87.301 529.838,87.762 530.373 C 89.751 532.684,95.289 538.007,96.364 538.643 C 97.010 539.024,97.740 539.715,97.988 540.178 C 98.236 540.642,99.240 541.527,100.218 542.146 C 101.196 542.765,102.342 543.756,102.764 544.350 C 103.187 544.943,104.043 545.686,104.666 546.001 C 105.290 546.315,107.159 547.591,108.821 548.834 C 110.483 550.078,112.250 551.225,112.747 551.383 C 113.245 551.541,114.547 552.465,115.640 553.435 C 116.733 554.406,117.812 555.200,118.039 555.200 C 118.824 555.200,122.630 557.113,123.191 557.790 C 123.745 558.456,126.163 559.696,127.860 560.182 C 128.333 560.318,129.863 561.168,131.260 562.071 C 132.657 562.974,134.898 564.027,136.239 564.411 C 138.568 565.077,140.527 565.915,143.600 567.557 C 144.370 567.969,145.990 568.516,147.200 568.772 C 151.434 569.671,153.005 570.126,153.600 570.627 C 154.567 571.440,159.076 572.690,163.600 573.399 C 165.910 573.761,168.565 574.224,169.500 574.429 C 172.503 575.085,174.964 575.642,176.400 575.990 C 182.186 577.394,185.213 577.600,200.035 577.596 C 215.406 577.592,217.660 577.413,225.600 575.573 C 229.385 574.696,231.072 574.351,233.200 574.019 C 240.739 572.841,245.363 571.642,246.999 570.439 C 247.495 570.074,249.893 569.383,252.800 568.767 C 255.840 568.123,257.195 567.602,258.638 566.525 C 259.319 566.016,260.086 565.600,260.343 565.600 C 260.600 565.600,261.123 565.434,261.505 565.230 C 261.887 565.027,263.046 564.646,264.079 564.384 C 265.113 564.122,266.823 563.339,267.879 562.645 C 270.006 561.247,272.490 560.000,273.148 560.000 C 273.753 560.000,276.150 558.612,277.355 557.564 C 277.914 557.078,279.593 556.169,281.086 555.543 C 282.579 554.918,284.070 554.086,284.400 553.694 C 285.206 552.739,287.413 551.200,287.979 551.200 C 288.451 551.200,288.974 550.822,290.601 549.300 C 291.130 548.805,291.675 548.400,291.810 548.400 C 291.946 548.400,292.308 548.175,292.615 547.900 C 293.786 546.850,294.237 546.555,295.415 546.072 C 296.083 545.798,296.977 545.111,297.401 544.547 C 297.825 543.982,298.956 542.981,299.914 542.322 C 300.872 541.663,302.470 540.347,303.465 539.399 C 304.460 538.451,305.447 537.523,305.658 537.337 C 306.395 536.687,308.864 534.189,309.927 533.017 C 310.517 532.366,312.233 530.566,313.740 529.017 C 318.191 524.440,319.421 523.078,320.433 521.604 C 320.961 520.836,321.979 519.692,322.696 519.062 C 323.413 518.432,324.000 517.576,324.000 517.159 C 324.000 516.741,324.180 516.400,324.400 516.400 C 324.620 516.400,324.800 516.208,324.800 515.973 C 324.800 515.738,325.597 514.568,326.571 513.372 C 327.545 512.176,328.817 510.227,329.397 509.042 C 329.977 507.856,330.976 506.419,331.617 505.848 C 332.258 505.277,332.905 504.312,333.054 503.705 C 333.577 501.583,334.855 498.994,335.776 498.195 C 336.286 497.752,336.979 496.580,337.315 495.590 C 337.972 493.656,339.594 490.025,340.527 488.400 C 341.582 486.564,342.400 484.383,342.400 483.405 C 342.400 482.349,342.674 481.602,344.604 477.400 C 345.311 475.860,346.108 473.340,346.375 471.800 C 347.096 467.646,348.268 462.018,348.792 460.200 C 349.591 457.427,350.020 455.486,350.473 452.600 C 350.784 450.611,350.955 399.151,351.063 274.922 C 351.229 82.741,351.358 93.702,348.867 88.117 C 348.200 86.623,347.440 84.410,347.178 83.200 C 346.373 79.488,344.983 76.000,344.309 76.000 C 344.139 76.000,344.000 75.730,344.000 75.400 C 344.000 75.070,343.820 74.800,343.600 74.800 C 343.380 74.800,343.200 74.519,343.200 74.175 C 343.200 72.970,341.041 68.984,339.530 67.400 C 338.690 66.520,337.891 65.455,337.754 65.034 C 337.454 64.114,335.804 62.400,335.218 62.400 C 334.988 62.400,334.800 62.244,334.800 62.054 C 334.800 61.561,330.838 57.600,330.345 57.600 C 330.118 57.600,329.320 56.969,328.571 56.198 C 327.394 54.985,322.664 52.400,321.623 52.400 C 321.427 52.400,321.207 52.258,321.133 52.083 C 320.676 50.998,317.885 49.641,314.898 49.053 C 313.083 48.695,310.833 48.062,309.898 47.645 C 303.020 44.575,311.706 44.796,199.639 44.832 C 144.728 44.849,99.620 44.923,99.400 44.995 M301.967 67.225 C 304.623 67.653,307.587 68.746,307.595 69.300 C 307.598 69.465,307.782 69.600,308.004 69.600 C 308.401 69.600,311.021 70.687,313.405 71.840 C 314.067 72.161,314.942 72.913,315.348 73.512 C 315.755 74.110,316.856 75.174,317.794 75.875 C 318.791 76.620,319.617 77.618,319.781 78.275 C 320.248 80.147,322.403 84.800,322.804 84.800 C 324.030 84.800,324.803 95.435,324.785 112.063 C 324.765 131.694,324.509 132.806,320.024 132.794 C 315.661 132.782,315.864 133.799,315.555 110.400 C 315.269 88.761,315.111 87.168,313.049 85.106 C 312.743 84.800,312.117 83.813,311.658 82.913 C 310.824 81.278,309.093 79.600,308.242 79.600 C 307.994 79.600,307.307 79.150,306.713 78.600 C 306.120 78.050,305.447 77.600,305.217 77.600 C 304.988 77.600,304.800 77.456,304.800 77.280 C 304.800 76.224,299.385 76.000,273.776 75.993 C 240.507 75.984,240.800 76.025,240.800 71.427 C 240.800 68.579,241.246 67.804,243.200 67.261 C 245.188 66.709,298.563 66.675,301.967 67.225 M323.280 161.500 C 325.289 163.830,325.463 189.806,323.497 193.900 C 322.784 195.384,317.511 195.247,316.509 193.718 C 315.753 192.564,315.393 165.650,316.101 163.128 C 316.760 160.775,321.690 159.657,323.280 161.500 M323.351 223.700 C 325.135 225.504,324.950 236.830,323.104 238.811 C 321.874 240.131,317.784 239.806,316.662 238.299 C 315.520 236.765,315.419 225.947,316.530 224.250 C 317.312 223.057,322.317 222.654,323.351 223.700 " stroke="none" fill="#f35c6c" fill-rule="evenodd"></path></g></svg>